<svg id="Layer_1" data-name="Layer 1" xmlns="http://www.w3.org/2000/svg" xmlns:xlink="http://www.w3.org/1999/xlink" viewBox="0 0 451 629.64"><defs><style>.cls-1{fill:url(#linear-gradient);}.cls-2{fill:url(#linear-gradient-2);}.cls-3{fill:url(#linear-gradient-3);}.cls-4{fill:#262626;}</style><linearGradient id="linear-gradient" x1="472.67" y1="123.35" x2="873.8" y2="524.47" gradientTransform="matrix(1, 0, 0, -1, -446.5, 546.3)" gradientUnits="userSpaceOnUse"><stop offset="0" stop-color="#ef6313"/><stop offset="1" stop-color="#ef4f13"/></linearGradient><linearGradient id="linear-gradient-2" x1="437.21" y1="158.81" x2="838.33" y2="559.94" gradientTransform="matrix(1, 0, 0, -1, -446.5, 546.3)" gradientUnits="userSpaceOnUse"><stop offset="0" stop-color="#ef6313"/><stop offset="1" stop-color="#ef6313"/></linearGradient><linearGradient id="linear-gradient-3" x1="345.5" y1="250.52" x2="746.62" y2="651.65" xlink:href="#linear-gradient-2"/></defs><path class="cls-1" d="M23.87,439.75c5.19-3.09,9-2.11,12.71-2.16,37.44-.5,74.9-.3,112.32-2.54,97.66-5.83,130.84-105.84,104.65-166.1-11.25-25.89-30.79-43.19-56.13-54.56-2.85-1.28-5.75-2.48-8.57-3.82-.47-.23-.68-1-1.39-2.13,13.28-8.4,25.74-17.79,34.84-31,41.35-60.14,11.92-140.78-58.49-160.31-18.39-5.1-37.23-6.33-56.07-6.85C83.84,9.61,59.9,10,36,9.81c-3.9,0-8,1-12.59-1.43C31.68,1.25,41.11.1,50.79.09q59-.12,118-.06H391.63C428,0,446.91,18.93,446.92,55.3q.07,168.08,0,336.14c0,37.66-18.53,56-56.49,56q-167.6.09-335.2.09C44.62,447.54,34.2,446.8,23.87,439.75Z"/><path class="cls-2" d="M67.32,364.81c-24,0-41.33-.17-58.62.09C2.17,365,0,362.53,0,356c.23-32.69.11-65.39.06-98.09,0-4.41.17-8.18,6.23-8.13,40.85.37,81.84-1.08,122.25,6.42,28.48,5.29,43.64,26.08,42.4,55.75-1.17,27.74-17.78,45.34-46.44,49.17-4,.54-8.07,1.43-12.13,1.64C95.14,363.65,77.86,364.3,67.32,364.81Z"/><path class="cls-3" d="M58,80.69c18,.75,35.89,1.74,53.73,3.69C145,88,162,112.87,153,144.54c-5.14,18.1-18.47,27.8-35.88,30.9C80.39,182,43.16,180,6,179.88c-4.65,0-5.88-2.56-5.87-6.6q0-43-.06-85.94c0-5.61,3-6.74,7.84-6.7C24.61,80.77,41.29,80.69,58,80.69Z"/><path class="cls-4" d="M61.17,517.37a15.17,15.17,0,0,1,3,9.55,14.34,14.34,0,0,1-6.57,12.62Q51,544,38.6,544H5V481.77H36.82q11.91,0,18.13,4.4A13.8,13.8,0,0,1,61.17,498,14.66,14.66,0,0,1,59,506a15.16,15.16,0,0,1-6.17,5.55A17.42,17.42,0,0,1,61.17,517.37ZM22.42,494.48v12H34.5q8.88,0,8.89-6t-8.89-6Zm24,30.49q0-6.32-9.25-6.31H22.42V531.3H37.17Q46.43,531.3,46.42,525Z"/><path class="cls-4" d="M87,541.05a31.82,31.82,0,0,1,0-56.35,39.8,39.8,0,0,1,35.47,0,31.81,31.81,0,0,1,0,56.35A39.73,39.73,0,0,1,87,541.05Zm26.27-12.62a16,16,0,0,0,6-6.26,20.55,20.55,0,0,0,0-18.58,16.07,16.07,0,0,0-6-6.27,17.52,17.52,0,0,0-17.07,0,16,16,0,0,0-6,6.27,20.55,20.55,0,0,0,0,18.58,16,16,0,0,0,6,6.26A17.52,17.52,0,0,0,113.26,528.43Z"/><path class="cls-4" d="M162.18,541.05a31.82,31.82,0,0,1,0-56.35,39.8,39.8,0,0,1,35.47,0,31.81,31.81,0,0,1,0,56.35,39.73,39.73,0,0,1-35.47,0Zm26.32-12.62a16,16,0,0,0,6-6.26,20.55,20.55,0,0,0,0-18.58,16,16,0,0,0-6-6.27,17.52,17.52,0,0,0-17.07,0,16.07,16.07,0,0,0-6,6.27,20.55,20.55,0,0,0,0,18.58,16,16,0,0,0,6,6.26A17.52,17.52,0,0,0,188.5,528.43Z"/><path class="cls-4" d="M247.73,521.41l-6.58,7V544H223.73v-62.2h17.42v25.86l24.09-25.86h19.38L259.2,509.3,286,544H265.5Z"/><path class="cls-4" d="M290.57,481.77h17.6V544h-17.6Z"/><path class="cls-4" d="M379.9,481.77V544H365.41l-27.47-33.16V544H320.7V481.77h14.49l27.46,33.15V481.77Z"/><path class="cls-4" d="M434,511.54h15.56V537.3a40.84,40.84,0,0,1-12.27,5.87,48.91,48.91,0,0,1-13.86,2,37.13,37.13,0,0,1-17.6-4.13,30.89,30.89,0,0,1-12.27-11.51,33.66,33.66,0,0,1,0-33.42,30.59,30.59,0,0,1,12.36-11.51,38,38,0,0,1,17.86-4.13,39.69,39.69,0,0,1,15.7,3,30.11,30.11,0,0,1,11.55,8.44L439.85,502a19.73,19.73,0,0,0-15.11-6.93q-8,0-12.89,4.85T407,512.88a18.79,18.79,0,0,0,2.22,9.2,15.86,15.86,0,0,0,6.22,6.31,18.26,18.26,0,0,0,9.15,2.26,22.59,22.59,0,0,0,9.51-2Z"/><path class="cls-4" d="M178,615.24H146.9l-6.14,14.4H128.85l28-62.21h11.38l28.08,62.21H184.23Zm-3.82-9.06L162.5,579l-11.64,27.2Z"/><path class="cls-4" d="M243.91,570.09a20.51,20.51,0,0,1,9.2,7.65,23.32,23.32,0,0,1,0,23.59,20.36,20.36,0,0,1-9.2,7.69,34.41,34.41,0,0,1-14.09,2.67h-14v18h-11.6V567.43h25.6A34.4,34.4,0,0,1,243.91,570.09Zm-3.16,28.62q3.92-3.19,3.91-9.15t-3.91-9.16c-2.6-2.13-6.43-3.2-11.46-3.2H215.78v24.71h13.51C234.32,601.91,238.15,600.85,240.75,598.71Z"/><path class="cls-4" d="M307.55,570.09a20.51,20.51,0,0,1,9.2,7.65,23.32,23.32,0,0,1,0,23.59,20.42,20.42,0,0,1-9.2,7.69,34.52,34.52,0,0,1-14.05,2.67h-14v18H267.86V567.43H293.5A34.38,34.38,0,0,1,307.55,570.09Zm-3.16,28.62q3.92-3.19,3.91-9.15t-3.91-9.16q-3.92-3.2-11.46-3.2H279.42v24.71h13.51Q300.51,601.91,304.39,598.71Z"/></svg>